<svg width="138" height="132" viewBox="0 0 138 132" fill="none" xmlns="http://www.w3.org/2000/svg"><path d="M70.759 118.633C98.759 118.633 121.459 95.9333 121.459 67.8333C121.459 39.7333 98.659 17.0333 70.759 17.0333C42.759 17.0333 20.059 39.7333 20.059 67.8333C20.059 95.9333 42.759 118.633 70.759 118.633Z" fill="#F4F4F5"></path><path d="M124.609 100.61C126.873 100.61 128.709 98.7745 128.709 96.5102C128.709 94.2458 126.873 92.4102 124.609 92.4102C122.345 92.4102 120.509 94.2458 120.509 96.5102C120.509 98.7745 122.345 100.61 124.609 100.61Z" fill="#F4F4F5"></path><path d="M130.609 84.6101C132.155 84.6101 133.409 83.3565 133.409 81.8101C133.409 80.2637 132.155 79.0101 130.609 79.0101C129.063 79.0101 127.809 80.2637 127.809 81.8101C127.809 83.3565 129.063 84.6101 130.609 84.6101Z" fill="#F4F4F5"></path><path d="M22.759 34.4334C24.3054 34.4334 25.559 33.1798 25.559 31.6334C25.559 30.087 24.3054 28.8334 22.759 28.8334C21.2126 28.8334 19.959 30.087 19.959 31.6334C19.959 33.1798 21.2126 34.4334 22.759 34.4334Z" fill="#F4F4F5"></path><path d="M5.65898 88.4333C8.53086 88.4333 10.859 86.1052 10.859 83.2333C10.859 80.3614 8.53086 78.0333 5.65898 78.0333C2.7871 78.0333 0.458984 80.3614 0.458984 83.2333C0.458984 86.1052 2.7871 88.4333 5.65898 88.4333Z" fill="#F4F4F5"></path><path d="M77.1203 86.2513H65.8531C63.2424 86.2513 61.0439 88.6597 61.0439 91.5196V97.6909C61.0439 104.013 65.7157 109.13 71.4867 109.13C77.2577 109.13 81.9294 104.013 81.9294 97.6909V91.5196C81.9294 88.5092 79.7309 86.2513 77.1203 86.2513Z" fill="white"></path><g filter="url(#filter0_d_382_40013)"><path fill-rule="evenodd" clip-rule="evenodd" d="M76.1203 27.1172C87.1449 29.6673 95.3569 39.5407 95.3569 51.3398V54.4992C95.3569 81.1475 115.418 98.5926 115.418 98.5926H25.418C25.418 98.5926 45.6164 81.1475 45.6164 54.4992V51.3398C45.6164 39.5407 53.8284 29.6673 64.8531 27.1172V26.0651C64.8531 22.9058 67.3264 20.4332 70.4867 20.4332C73.647 20.4332 76.1203 22.9058 76.1203 26.0651V27.1172Z" fill="url(#paint0_linear_382_40013)"></path></g><path d="M60.0439 65.3508C56.6088 65.3508 53.7233 63.153 52.6241 59.9937C52.3493 59.3069 52.7615 58.6201 53.4485 58.3453C54.1355 58.0706 54.8225 58.4827 55.0974 59.1695C55.7844 61.2299 57.8454 62.7409 60.0439 62.7409C62.2424 62.7409 64.3035 61.3673 64.9905 59.1695C65.2653 58.4827 65.9523 58.0706 66.6393 58.3453C67.3264 58.6201 67.7386 59.3069 67.4638 59.9937C66.3645 63.2904 63.479 65.3508 60.0439 65.3508Z" fill="#D4D4D8"></path><path d="M80.792 65.3508C77.3569 65.3508 74.4714 63.153 73.3722 59.9937C73.0974 59.3069 73.5096 58.6201 74.1966 58.3453C74.8836 58.0706 75.5706 58.4827 75.8454 59.1695C76.5325 61.2299 78.5935 62.7409 80.792 62.7409C82.9905 62.7409 85.0516 61.3673 85.7386 59.1695C86.0134 58.4827 86.7004 58.0706 87.3874 58.3453C88.0745 58.6201 88.4867 59.3069 88.2119 59.9937C87.1126 63.2904 84.2271 65.3508 80.792 65.3508Z" fill="#D4D4D8"></path><path d="M70.4867 82.1695C72.2321 82.1695 73.647 80.755 73.647 79.0102C73.647 77.2653 72.2321 75.8508 70.4867 75.8508C68.7413 75.8508 67.3264 77.2653 67.3264 79.0102C67.3264 80.755 68.7413 82.1695 70.4867 82.1695Z" fill="#D4D4D8"></path><path d="M87.4209 4.66212V0.0124512H105.391V4.66212L93.1291 19.4565H105.602V24.1062H86.7867V19.4565L99.0486 4.66212H87.4209Z" fill="url(#paint1_linear_382_40013)"></path><path d="M102.22 39.5347V36.5758H113.848V39.5347L106.025 49.0454H114.059V52.0043H101.797V49.0454L109.619 39.5347H102.22Z" fill="url(#paint2_linear_382_40013)"></path><defs><filter id="filter0_d_382_40013" x="3.41797" y="9.43323" width="134" height="122.159" filterUnits="userSpaceOnUse" color-interpolation-filters="sRGB"><feFlood flood-opacity="0" result="BackgroundImageFix"></feFlood><feColorMatrix in="SourceAlpha" type="matrix" values="0 0 0 0 0 0 0 0 0 0 0 0 0 0 0 0 0 0 127 0" result="hardAlpha"></feColorMatrix><feOffset dy="11"></feOffset><feGaussianBlur stdDeviation="11"></feGaussianBlur><feColorMatrix type="matrix" values="0 0 0 0 0.397708 0 0 0 0 0.47749 0 0 0 0 0.575 0 0 0 0.27 0"></feColorMatrix><feBlend mode="normal" in2="BackgroundImageFix" result="effect1_dropShadow_382_40013"></feBlend><feBlend mode="normal" in="SourceGraphic" in2="effect1_dropShadow_382_40013" result="shape"></feBlend></filter><linearGradient id="paint0_linear_382_40013" x1="70.3886" y1="18.6253" x2="70.3886" y2="99.4352" gradientUnits="userSpaceOnUse"><stop stop-color="#EEF1F7"></stop><stop offset="0.9964" stop-color="#EFF0F2"></stop></linearGradient><linearGradient id="paint1_linear_382_40013" x1="96.196" y1="0.849439" x2="96.196" y2="14.373" gradientUnits="userSpaceOnUse"><stop stop-color="#D4D4D8"></stop><stop offset="1" stop-color="#D4D4D8"></stop></linearGradient><linearGradient id="paint2_linear_382_40013" x1="107.929" y1="37.1118" x2="107.929" y2="45.7716" gradientUnits="userSpaceOnUse"><stop stop-color="#D4D4D8"></stop><stop offset="1" stop-color="#D4D4D8"></stop></linearGradient></defs></svg>